<?xml version="1.0" encoding="UTF-8" standalone="no"?>
<svg
   width="262"
   height="36"
   viewBox="0 0 262 36"
   fill="none"
   version="1.1"
   id="svg196"
   sodipodi:docname="logo.svg"
   inkscape:version="1.2.2 (b0a84865, 2022-12-01)"
   xmlns:inkscape="http://www.inkscape.org/namespaces/inkscape"
   xmlns:sodipodi="http://sodipodi.sourceforge.net/DTD/sodipodi-0.dtd"
   xmlns="http://www.w3.org/2000/svg"
   xmlns:svg="http://www.w3.org/2000/svg">
  <defs
     id="defs200">
    <inkscape:path-effect
       effect="bspline"
       id="path-effect2255"
       is_visible="true"
       lpeversion="1"
       weight="33.333333"
       steps="2"
       helper_size="0"
       apply_no_weight="true"
       apply_with_weight="true"
       only_selected="false" />
    <inkscape:path-effect
       effect="bspline"
       id="path-effect1467"
       is_visible="true"
       lpeversion="1"
       weight="33.333333"
       steps="2"
       helper_size="0"
       apply_no_weight="true"
       apply_with_weight="true"
       only_selected="false" />
    <inkscape:path-effect
       effect="simplify"
       id="path-effect757"
       is_visible="true"
       lpeversion="1"
       steps="1"
       threshold="0.00172414"
       smooth_angles="360"
       helper_size="0"
       simplify_individual_paths="false"
       simplify_just_coalesce="false" />
  </defs>
  <sodipodi:namedview
     id="namedview198"
     pagecolor="#ffffff"
     bordercolor="#000000"
     borderopacity="0.25"
     inkscape:showpageshadow="2"
     inkscape:pageopacity="0.0"
     inkscape:pagecheckerboard="0"
     inkscape:deskcolor="#d1d1d1"
     showgrid="false"
     inkscape:zoom="4.0048871"
     inkscape:cx="58.054072"
     inkscape:cy="13.608374"
     inkscape:window-width="1630"
     inkscape:window-height="1043"
     inkscape:window-x="493"
     inkscape:window-y="240"
     inkscape:window-maximized="0"
     inkscape:current-layer="svg196" />
  <path
     d="M34.22 35L43.988 4.2H53.712L63.436 35H57.144L48.96 7.676H48.784L40.424 35H34.22ZM39.192 26.156L40.732 21.536H56.44L57.98 26.156H39.192ZM65.2847 35V4.2H71.2247V35H65.2847ZM75.1675 35V4.2H86.6955C89.1595 4.2 91.1982 4.62533 92.8115 5.476C94.4542 6.32667 95.6715 7.47067 96.4635 8.908C97.2555 10.316 97.6515 11.8853 97.6515 13.616C97.6515 15.2587 97.2555 16.7987 96.4635 18.236C95.7008 19.644 94.4982 20.788 92.8555 21.668C91.2422 22.5187 89.1595 22.944 86.6075 22.944H81.1075V35H75.1675ZM91.1395 35L84.8035 21.448H91.2275L97.9155 35H91.1395ZM81.1075 18.632H86.2995C88.1182 18.632 89.4528 18.192 90.3035 17.312C91.1542 16.432 91.5795 15.2733 91.5795 13.836C91.5795 12.3987 91.1542 11.2693 90.3035 10.448C89.4528 9.59733 88.1182 9.172 86.2995 9.172H81.1075V18.632ZM107.496 35L97.7278 4.2H103.976L112.336 31.304H112.512L120.696 4.2H126.944L117.22 35H107.496ZM129.136 35V4.2H135.076V35H129.136ZM137.479 35V30.424L151.515 9.128H137.567V4.2H158.335V8.776L144.255 30.072H158.423V35H137.479Z"
     fill="black"
     id="path194" />
  <path
     style="fill:#8d8ba7;fill-opacity:1;stroke:#000000;stroke-width:0;stroke-linecap:square;stroke-linejoin:miter;stroke-miterlimit:0;stroke-dasharray:none;stroke-opacity:1;paint-order:fill markers stroke"
     d="M 33.544495,3.8487778 3.4103547,34.541475 33.544495,34.604242 Z"
     id="path2326"
     sodipodi:nodetypes="cccc" />
</svg>
