<svg width="262" height="36" viewBox="0 0 262 36" fill="none" xmlns="http://www.w3.org/2000/svg">
<path fill-rule="evenodd" clip-rule="evenodd" d="M29.5229 10.4791C32.1887 10.4791 34.3497 8.31801 34.3497 5.6522C34.3497 2.98638 32.1887 0.825317 29.5229 0.825317C26.8571 0.825317 24.696 2.98638 24.696 5.6522C24.696 8.31801 26.8571 10.4791 29.5229 10.4791Z" fill="#8D8BA7"/>
<path fill-rule="evenodd" clip-rule="evenodd" d="M29.5226 22.602C32.1884 22.602 34.3495 20.441 34.3495 17.7753C34.3495 15.1096 32.1884 12.9486 29.5226 12.9486C26.8568 12.9486 24.6958 15.1096 24.6958 17.7753C24.6958 20.441 26.8568 22.602 29.5226 22.602Z" fill="#8D8BA7"/>
<path fill-rule="evenodd" clip-rule="evenodd" d="M29.5226 35.1747C32.1884 35.1747 34.3495 33.0136 34.3495 30.3478C34.3495 27.682 32.1884 25.5209 29.5226 25.5209C26.8568 25.5209 24.6958 27.682 24.6958 30.3478C24.6958 33.0136 26.8568 35.1747 29.5226 35.1747Z" fill="#8D8BA7"/>
<path fill-rule="evenodd" clip-rule="evenodd" d="M16.9506 22.602C19.6163 22.602 21.7773 20.441 21.7773 17.7753C21.7773 15.1096 19.6163 12.9486 16.9506 12.9486C14.2849 12.9486 12.1239 15.1096 12.1239 17.7753C12.1239 20.441 14.2849 22.602 16.9506 22.602Z" fill="#8D8BA7"/>
<path fill-rule="evenodd" clip-rule="evenodd" d="M16.9504 35.1747C19.6161 35.1747 21.7772 33.0136 21.7772 30.3478C21.7772 27.682 19.6161 25.5209 16.9504 25.5209C14.2847 25.5209 12.1237 27.682 12.1237 30.3478C12.1237 33.0136 14.2847 35.1747 16.9504 35.1747Z" fill="#8D8BA7"/>
<path fill-rule="evenodd" clip-rule="evenodd" d="M4.82681 35.1747C7.49262 35.1747 9.65369 33.0136 9.65369 30.3478C9.65369 27.682 7.49262 25.5209 4.82681 25.5209C2.161 25.5209 -6.86646e-05 27.682 -6.86646e-05 30.3478C-6.86646e-05 33.0136 2.161 35.1747 4.82681 35.1747Z" fill="#8D8BA7"/>
<path d="M34.22 35L43.988 4.2H53.712L63.436 35H57.144L48.96 7.676H48.784L40.424 35H34.22ZM39.192 26.156L40.732 21.536H56.44L57.98 26.156H39.192ZM65.2847 35V4.2H71.2247V35H65.2847ZM75.1675 35V4.2H86.6955C89.1595 4.2 91.1982 4.62533 92.8115 5.476C94.4542 6.32667 95.6715 7.47067 96.4635 8.908C97.2555 10.316 97.6515 11.8853 97.6515 13.616C97.6515 15.2587 97.2555 16.7987 96.4635 18.236C95.7008 19.644 94.4982 20.788 92.8555 21.668C91.2422 22.5187 89.1595 22.944 86.6075 22.944H81.1075V35H75.1675ZM91.1395 35L84.8035 21.448H91.2275L97.9155 35H91.1395ZM81.1075 18.632H86.2995C88.1182 18.632 89.4528 18.192 90.3035 17.312C91.1542 16.432 91.5795 15.2733 91.5795 13.836C91.5795 12.3987 91.1542 11.2693 90.3035 10.448C89.4528 9.59733 88.1182 9.172 86.2995 9.172H81.1075V18.632ZM107.496 35L97.7278 4.2H103.976L112.336 31.304H112.512L120.696 4.2H126.944L117.22 35H107.496ZM129.136 35V4.2H135.076V35H129.136ZM137.479 35V30.424L151.515 9.128H137.567V4.2H158.335V8.776L144.255 30.072H158.423V35H137.479Z" fill="black"/>
</svg>
